<mxfile host="app.diagrams.net" agent="Mozilla/5.0 (Windows NT 10.0; Win64; x64; rv:137.0) Gecko/20100101 Firefox/137.0" version="26.2.14">
  <diagram id="R2lEEEUBdFMjLlhIrx00" name="Page-1">
    <mxGraphModel dx="1542" dy="628" grid="1" gridSize="10" guides="1" tooltips="1" connect="1" arrows="1" fold="1" page="1" pageScale="1" pageWidth="850" pageHeight="1100" math="0" shadow="0" extFonts="Permanent Marker^https://fonts.googleapis.com/css?family=Permanent+Marker">
      <root>
        <mxCell id="0" />
        <mxCell id="1" parent="0" />
        <mxCell id="jIkjb01WulAcqk8oaOBP-1" value="Usuario" style="swimlane;childLayout=stackLayout;horizontal=1;startSize=50;horizontalStack=0;rounded=1;fontSize=14;fontStyle=0;strokeWidth=2;resizeParent=0;resizeLast=1;shadow=0;dashed=0;align=center;arcSize=4;whiteSpace=wrap;html=1;" vertex="1" parent="1">
          <mxGeometry x="80" y="130" width="170" height="190" as="geometry" />
        </mxCell>
        <mxCell id="jIkjb01WulAcqk8oaOBP-2" value="+PK-idUsuario: Integer&lt;br&gt;+nombre: String&lt;br&gt;&lt;div&gt;+apellidos: String&lt;/div&gt;&lt;div&gt;+email: String&lt;/div&gt;&lt;div&gt;+password: String&lt;/div&gt;&lt;div&gt;+direccion: String&lt;/div&gt;&lt;div&gt;+redSocial: Array de Strings&lt;/div&gt;&lt;div&gt;+datosPago: String &lt;br&gt;&lt;/div&gt;" style="align=left;strokeColor=none;fillColor=none;spacingLeft=4;spacingRight=4;fontSize=12;verticalAlign=top;resizable=0;rotatable=0;part=1;html=1;whiteSpace=wrap;" vertex="1" parent="jIkjb01WulAcqk8oaOBP-1">
          <mxGeometry y="50" width="170" height="140" as="geometry" />
        </mxCell>
        <mxCell id="jIkjb01WulAcqk8oaOBP-3" value="Producto" style="swimlane;childLayout=stackLayout;horizontal=1;startSize=50;horizontalStack=0;rounded=1;fontSize=14;fontStyle=0;strokeWidth=2;resizeParent=0;resizeLast=1;shadow=0;dashed=0;align=center;arcSize=4;whiteSpace=wrap;html=1;" vertex="1" parent="1">
          <mxGeometry x="270" y="660" width="170" height="150" as="geometry" />
        </mxCell>
        <mxCell id="jIkjb01WulAcqk8oaOBP-4" value="+PK-idProducto: Integer&lt;br&gt;+nombre: String&lt;br&gt;&lt;div&gt;+descripcion: String&lt;/div&gt;&lt;div&gt;+precio: Float&lt;/div&gt;&lt;div&gt;+stock: Integer&lt;/div&gt;&lt;div&gt;+imagenes: Array de Strings&lt;/div&gt;" style="align=left;strokeColor=none;fillColor=none;spacingLeft=4;spacingRight=4;fontSize=12;verticalAlign=top;resizable=0;rotatable=0;part=1;html=1;whiteSpace=wrap;" vertex="1" parent="jIkjb01WulAcqk8oaOBP-3">
          <mxGeometry y="50" width="170" height="100" as="geometry" />
        </mxCell>
        <mxCell id="jIkjb01WulAcqk8oaOBP-5" value="Cliente" style="rounded=1;arcSize=10;whiteSpace=wrap;html=1;align=center;" vertex="1" parent="1">
          <mxGeometry x="240" y="480" width="100" height="40" as="geometry" />
        </mxCell>
        <mxCell id="jIkjb01WulAcqk8oaOBP-6" value="Moderador" style="rounded=1;arcSize=10;whiteSpace=wrap;html=1;align=center;" vertex="1" parent="1">
          <mxGeometry x="-10" y="480" width="100" height="40" as="geometry" />
        </mxCell>
        <mxCell id="jIkjb01WulAcqk8oaOBP-7" value="Administrador" style="rounded=1;arcSize=10;whiteSpace=wrap;html=1;align=center;" vertex="1" parent="1">
          <mxGeometry x="115" y="480" width="100" height="40" as="geometry" />
        </mxCell>
        <mxCell id="jIkjb01WulAcqk8oaOBP-8" value="" style="endArrow=block;html=1;rounded=0;endFill=0;endSize=41;exitX=0.5;exitY=1;exitDx=0;exitDy=0;" edge="1" parent="1" source="jIkjb01WulAcqk8oaOBP-2">
          <mxGeometry relative="1" as="geometry">
            <mxPoint x="100" y="360" as="sourcePoint" />
            <mxPoint x="165" y="420" as="targetPoint" />
          </mxGeometry>
        </mxCell>
        <mxCell id="jIkjb01WulAcqk8oaOBP-9" value="" style="endArrow=none;html=1;rounded=0;" edge="1" parent="1" target="jIkjb01WulAcqk8oaOBP-5">
          <mxGeometry relative="1" as="geometry">
            <mxPoint x="180" y="390" as="sourcePoint" />
            <mxPoint x="288.18181818181824" y="490" as="targetPoint" />
          </mxGeometry>
        </mxCell>
        <mxCell id="jIkjb01WulAcqk8oaOBP-10" value="" style="endArrow=none;html=1;rounded=0;" edge="1" parent="1" target="jIkjb01WulAcqk8oaOBP-7">
          <mxGeometry relative="1" as="geometry">
            <mxPoint x="165" y="419" as="sourcePoint" />
            <mxPoint x="165" y="479" as="targetPoint" />
          </mxGeometry>
        </mxCell>
        <mxCell id="jIkjb01WulAcqk8oaOBP-11" value="" style="endArrow=none;html=1;rounded=0;" edge="1" parent="1" target="jIkjb01WulAcqk8oaOBP-6">
          <mxGeometry relative="1" as="geometry">
            <mxPoint x="150" y="390" as="sourcePoint" />
            <mxPoint x="150" y="490" as="targetPoint" />
          </mxGeometry>
        </mxCell>
        <mxCell id="jIkjb01WulAcqk8oaOBP-12" value="Carrito" style="swimlane;childLayout=stackLayout;horizontal=1;startSize=50;horizontalStack=0;rounded=1;fontSize=14;fontStyle=0;strokeWidth=2;resizeParent=0;resizeLast=1;shadow=0;dashed=0;align=center;arcSize=4;whiteSpace=wrap;html=1;" vertex="1" parent="1">
          <mxGeometry x="-80" y="660" width="250" height="120" as="geometry" />
        </mxCell>
        <mxCell id="jIkjb01WulAcqk8oaOBP-13" value="+PK-idCarrito: Integer&lt;br&gt;&lt;div&gt;+productos: Array de Producto en el Carrito&lt;/div&gt;&lt;div&gt;+FK-idUsuario: Integer&lt;/div&gt;&lt;div&gt;+total: Float&lt;/div&gt;" style="align=left;strokeColor=none;fillColor=none;spacingLeft=4;spacingRight=4;fontSize=12;verticalAlign=top;resizable=0;rotatable=0;part=1;html=1;whiteSpace=wrap;" vertex="1" parent="jIkjb01WulAcqk8oaOBP-12">
          <mxGeometry y="50" width="250" height="70" as="geometry" />
        </mxCell>
        <mxCell id="jIkjb01WulAcqk8oaOBP-14" value="Pedido" style="swimlane;childLayout=stackLayout;horizontal=1;startSize=50;horizontalStack=0;rounded=1;fontSize=14;fontStyle=0;strokeWidth=2;resizeParent=0;resizeLast=1;shadow=0;dashed=0;align=center;arcSize=4;whiteSpace=wrap;html=1;" vertex="1" parent="1">
          <mxGeometry x="10" y="820" width="250" height="180" as="geometry" />
        </mxCell>
        <mxCell id="jIkjb01WulAcqk8oaOBP-15" value="&lt;div&gt;+PK-idPedido: Integer&lt;/div&gt;&lt;div&gt;+fecha: Date&lt;/div&gt;&lt;div&gt;+estado: String&lt;/div&gt;&lt;div&gt;+productos: Array de Productos en el Carrito&lt;/div&gt;&lt;div&gt;+FK-idUsuario: Integer&lt;/div&gt;&lt;div&gt;+FK-nombreUsuario: String&lt;/div&gt;&lt;div&gt;+FK-apellidosUsuario: String&lt;/div&gt;&lt;div&gt;+totalMasIVA: Float&amp;nbsp; &lt;br&gt;&lt;br&gt;&lt;/div&gt;" style="align=left;strokeColor=none;fillColor=none;spacingLeft=4;spacingRight=4;fontSize=12;verticalAlign=top;resizable=0;rotatable=0;part=1;html=1;whiteSpace=wrap;" vertex="1" parent="jIkjb01WulAcqk8oaOBP-14">
          <mxGeometry y="50" width="250" height="130" as="geometry" />
        </mxCell>
      </root>
    </mxGraphModel>
  </diagram>
</mxfile>
